<svg id="Calque_1" data-name="Calque 1" xmlns="http://www.w3.org/2000/svg" viewBox="0 0 407.42 518.16"><defs><style>.cls-1{fill:#fff;}</style></defs><title>LogoBlanc - ProjetWeb</title><path class="cls-1" d="M231.51,480.68V321.75L109.15,132.05q-16.08-25.64-22.73-40t-6.67-25q0-17.43,13.5-30.08t33.33-12.65q20.85,0,31.62,11.79t32.3,47l93.65,152.1,94.68-152.1,14.35-23.58a146.29,146.29,0,0,1,12.82-18,51,51,0,0,1,15.55-12.81q8.54-4.44,20.85-4.45,19.14,0,32,12.48t12.82,28.88a60.41,60.41,0,0,1-6.5,26.66q-6.49,13.34-22.22,36.91L333,321.75V480.68q0,31.11-14.36,46.49T282.1,542.55q-22.56,0-36.58-15.21T231.51,480.68Z" transform="translate(-79.75 -24.38)"/></svg>